{"accessors":[{"bufferView":2,"componentType":5126,"count":1164,"max":[19,19,50.332733154296875],"min":[-19,-19.000001907348633,0],"type":"VEC3"},{"bufferView":2,"byteOffset":13968,"componentType":5126,"count":1164,"max":[0.9999980926513672,0.9976736903190613,1],"min":[-0.9999980926513672,-1,-1],"type":"VEC3"},{"bufferView":1,"componentType":5126,"count":1164,"max":[0.9925583004951477,0.9688993096351624],"min":[0.007441699504852295,-0.40674149990081787],"type":"VEC2"},{"bufferView":0,"componentType":5125,"count":5412,"type":"SCALAR"},{"bufferView":2,"byteOffset":27936,"componentType":5126,"count":1668,"max":[11.495935440063477,8.05949878692627,9.12617015838623],"min":[-11.495936393737793,-8.059497833251953,0],"type":"VEC3"},{"bufferView":2,"byteOffset":47952,"componentType":5126,"count":1668,"max":[1,1,1],"min":[-1,-1,-0.9998984336853027],"type":"VEC3"},{"bufferView":1,"byteOffset":9312,"componentType":5126,"count":1668,"max":[1.0000001192092896,1],"min":[-3.4828602224479255e-9,-5.040740802542132e-8],"type":"VEC2"},{"bufferView":0,"byteOffset":21648,"componentType":5125,"count":7530,"type":"SCALAR"},{"bufferView":2,"byteOffset":67968,"componentType":5126,"count":366,"max":[27.81168556213379,2.0667028427124023,100.08567810058594],"min":[-31.155826568603516,-25.485036849975586,39.389556884765625],"type":"VEC3"},{"bufferView":2,"byteOffset":72360,"componentType":5126,"count":366,"max":[0.9992464184761047,0.9971799254417419,0.9991285800933838],"min":[-0.9818351864814758,-0.9968336224555969,-0.9971942901611328],"type":"VEC3"},{"bufferView":1,"byteOffset":22656,"componentType":5126,"count":366,"max":[21.225435256958008,28.267513275146484],"min":[-37.90987014770508,-32.794986724853516],"type":"VEC2"},{"bufferView":0,"byteOffset":51768,"componentType":5125,"count":2184,"type":"SCALAR"},{"bufferView":2,"byteOffset":76752,"componentType":5126,"count":475,"max":[46.17249298095703,17.54199981689453,93.66724395751953],"min":[-9.970648765563965,-41.16164016723633,46.627166748046875],"type":"VEC3"},{"bufferView":2,"byteOffset":82452,"componentType":5126,"count":475,"max":[0.9965890645980835,0.9984879493713379,0.9998263716697693],"min":[-0.9945937395095825,-0.9871312975883484,-0.9991761445999146],"type":"VEC3"},{"bufferView":1,"byteOffset":25584,"componentType":5126,"count":475,"max":[1.0061532258987427,1.0312632322311401],"min":[-0.007142066955566406,0.04707598686218262],"type":"VEC2"},{"bufferView":0,"byteOffset":60504,"componentType":5125,"count":2184,"type":"SCALAR"},{"bufferView":2,"byteOffset":88152,"componentType":5126,"count":475,"max":[13.35922908782959,7.7407426834106445,118.22587585449219],"min":[-19.790437698364258,-42.306373596191406,45.95779800415039],"type":"VEC3"},{"bufferView":2,"byteOffset":93852,"componentType":5126,"count":475,"max":[0.9991138577461243,0.9960315227508545,0.998589038848877],"min":[-0.9974536299705505,-0.9985807538032532,-0.999264657497406],"type":"VEC3"},{"bufferView":1,"byteOffset":29384,"componentType":5126,"count":475,"max":[1.006582260131836,1.409295916557312],"min":[-0.006576478481292725,0.02926093339920044],"type":"VEC2"},{"bufferView":0,"byteOffset":69240,"componentType":5125,"count":2184,"type":"SCALAR"}],"asset":{"extras":{"author":"Andres Bonomi (https://sketchfab.com/andresbonomi)","license":"CC-BY-4.0 (http://creativecommons.org/licenses/by/4.0/)","source":"https://sketchfab.com/3d-models/yt-award-3dc9cd5586464b2ebb9ce8cd1282d8cb","title":"YT AWARD"},"generator":"Sketchfab-12.29.0","version":"2.0"},"bufferViews":[{"buffer":0,"byteLength":77976,"name":"floatBufferViews","target":34963},{"buffer":0,"byteLength":33184,"byteOffset":77976,"byteStride":8,"name":"floatBufferViews","target":34962},{"buffer":0,"byteLength":99552,"byteOffset":111160,"byteStride":12,"name":"floatBufferViews","target":34962}],"buffers":[{"byteLength":210712,"uri":"data:application/octet-stream;base64,"}],"extensionsUsed":["KHR_texture_transform"],"images":[{"uri":"data:application/octet-stream;base64,"}],"materials":[{"doubleSided":true,"name":"Material_70","pbrMetallicRoughness":{"baseColorTexture":{"extensions":{"KHR_texture_transform":{"scale":[2,2]}},"index":0},"metallicFactor":0.8622404671,"roughnessFactor":0.1211135774}},{"doubleSided":true,"name":"Material_71","pbrMetallicRoughness":{"baseColorFactor":[0.766561419,0.766561419,0.766561419,1],"roughnessFactor":0}},{"doubleSided":true,"name":"Material_28","pbrMetallicRoughness":{"baseColorFactor":[0.9899636881,0,0,1],"roughnessFactor":0.1713594682}}],"meshes":[{"name":"Box001_Material #70_0","primitives":[{"attributes":{"NORMAL":1,"POSITION":0,"TEXCOORD_0":2},"indices":3,"material":0,"mode":4}]},{"name":"ChamferBox001_Material #71_0","primitives":[{"attributes":{"NORMAL":5,"POSITION":4,"TEXCOORD_0":6},"indices":7,"material":1,"mode":4}]},{"name":"Object002_Material #28_0","primitives":[{"attributes":{"NORMAL":9,"POSITION":8,"TEXCOORD_0":10},"indices":11,"material":2,"mode":4}]},{"name":"Object003_Material #70_0","primitives":[{"attributes":{"NORMAL":13,"POSITION":12,"TEXCOORD_0":14},"indices":15,"material":0,"mode":4}]},{"name":"Object001_Material #70_0","primitives":[{"attributes":{"NORMAL":17,"POSITION":16,"TEXCOORD_0":18},"indices":19,"material":0,"mode":4}]}],"nodes":[{"children":[1],"matrix":[1,0,0,0,0,2.220446049250313e-16,-1,0,0,1,2.220446049250313e-16,0,0,0,0,1],"name":"Sketchfab_model"},{"children":[2],"matrix":[0.009999999776482582,0,0,0,0,0,0.009999999776482582,0,0,-0.009999999776482582,0,0,0,0,0,1],"name":"YT AWARD.fbx"},{"children":[3],"name":"RootNode"},{"children":[4,5,7,9,11],"matrix":[1,0,0,0,0,2.220446049250313e-16,-1,0,0,1,2.220446049250313e-16,0,1.2855148315429688,-45.23419952392578,6.952412128448486,1],"name":"Box001"},{"mesh":0,"name":"Box001_Material #70_0"},{"children":[6],"matrix":[1.0081880092620694,1.762771887588911e-7,-2.668651440224093e-23,0,2.8719201198995624e-14,-1.6425468572136148e-7,1.0081880092620716,0,9.327311171783473e-8,-0.5334600210189666,-8.69116745015815e-8,0,-0.019766807556152344,-13.738075256347656,37.35041809082031,1],"name":"ChamferBox001"},{"mesh":1,"name":"ChamferBox001_Material #71_0"},{"children":[8],"matrix":[0.9999999999999847,1.7484555314694907e-7,1.4693679385278597e-39,0,-1.7484555314694907e-7,0.9999999999999847,-3.8893845486632136e-62,0,-1.4693679385278372e-39,-2.5691244998829583e-46,1,0,0,0,0,1],"name":"Object002"},{"mesh":2,"name":"Object002_Material #28_0"},{"children":[10],"matrix":[0.9999999999999847,1.7484555314694907e-7,1.4693679385278597e-39,0,-1.7484555314694907e-7,0.9999999999999847,-3.8893845486632136e-62,0,-1.4693679385278372e-39,-2.5691244998829583e-46,1,0,0,0,0,1],"name":"Object003"},{"mesh":3,"name":"Object003_Material #70_0"},{"children":[12],"matrix":[0.9999999999999847,1.7484555314694907e-7,1.4693679385278597e-39,0,-1.7484555314694907e-7,0.9999999999999847,-3.8893845486632136e-62,0,-1.4693679385278372e-39,-2.5691244998829583e-46,1,0,0,0,0,1],"name":"Object001"},{"mesh":4,"name":"Object001_Material #70_0"}],"samplers":[{"magFilter":9729,"minFilter":9987,"wrapS":10497,"wrapT":10497}],"scene":0,"scenes":[{"name":"Sketchfab_Scene","nodes":[0]}],"textures":[{"sampler":0,"source":0}]}